<svg width="32" height="32" viewBox="0 0 32 32" fill="none" xmlns="http://www.w3.org/2000/svg">
<g id="button dell">
<rect id="Rectangle 8" x="1" y="1" width="30" height="30" rx="4" fill="#1B1A17" stroke="#A35709" stroke-width="2"/>
<path id="Union" fill-rule="evenodd" clip-rule="evenodd" d="M13.0908 12.121C12.823 11.8532 12.3888 11.8532 12.121 12.121C11.8532 12.3888 11.8532 12.8229 12.121 13.0907L14.3232 15.2929C14.7137 15.6834 14.7137 16.3166 14.3232 16.7071L12.1211 18.9093C11.8533 19.1771 11.8533 19.6112 12.1211 19.879C12.3889 20.1468 12.823 20.1468 13.0908 19.879L15.293 17.6769C15.6835 17.2864 16.3166 17.2864 16.7072 17.6769L18.9092 19.879C19.177 20.1467 19.6112 20.1467 19.879 19.879C20.1468 19.6112 20.1468 19.177 19.879 18.9092L17.6769 16.7071C17.2864 16.3166 17.2864 15.6834 17.6769 15.2929L19.879 13.0908C20.1468 12.823 20.1468 12.3888 19.879 12.121C19.6113 11.8533 19.1771 11.8533 18.9093 12.121L16.7072 14.3232C16.3166 14.7137 15.6835 14.7137 15.293 14.3232L13.0908 12.121Z" fill="#FF8303"/>
</g>
</svg>
